<svg width="28" height="28" viewBox="0 0 28 28" fill="none" xmlns="http://www.w3.org/2000/svg">
<path fill-rule="evenodd" clip-rule="evenodd" d="M14.7167 6.17467C15.9496 7.40755 15.9496 9.40646 14.7167 10.6393C13.4839 11.8722 11.4849 11.8722 10.2521 10.6393C9.01917 9.40646 9.01917 7.40755 10.2521 6.17467C11.4849 4.94178 13.4839 4.94178 14.7167 6.17467Z" stroke="#F75E6E" stroke-width="2" stroke-linecap="round" stroke-linejoin="round"/>
<path d="M16.4291 15.009C15.2547 14.5398 13.8769 14.2812 12.4846 14.2812C8.82496 14.2812 5.25208 16.0596 5.25208 18.7944V19.6984C5.25208 20.1975 5.6571 20.6025 6.15614 20.6025H14.6661" stroke="#F75E6E" stroke-width="2" stroke-linecap="round" stroke-linejoin="round"/>
<path fill-rule="evenodd" clip-rule="evenodd" d="M18.8123 23.3376C16.3162 23.3376 14.292 21.3143 14.292 18.8172C14.292 16.3726 16.3714 14.2942 18.816 14.2969C21.3112 14.2987 23.3327 16.322 23.3327 18.8172C23.3327 21.3134 21.3094 23.3376 18.8123 23.3376Z" fill="#F75E6E" stroke="#F75E6E" stroke-width="1.3561" stroke-linecap="round" stroke-linejoin="round"/>
</svg>
